# xmcd CD database file
# Copyright (C) 1993-1998 Ti Kan
#
# Track frame offsets:
#  150
#  15787
#  39877
#  59325
#  88060
#  103317
#  126600
#  142610
#  165862
#  181432
#  200250
#  226050
#  240365
#  260655
#  288930
#
# Disc length: 4396 seconds
#
# Revision: 1
# Processed by: cddbd v1.4b41PL1 Copyright (c) Steve Scherf et al.
# Submitted via: CDWizzard Release:4.30
#
DISCID=bb112a0f
DTITLE=Blues masters -mix - Today's Blues Masters vol.1
DYEAR=1900
DGENRE=
TTITLE0=Some Kind Of Wonderful
TTITLE1=Standing On The Edge
TTITLE2=Sweet Woman Blues
TTITLE3=Drowning On Dry Land
TTITLE4=Two Fisted Mama
TTITLE5=I Could Cry
TTITLE6=The Road's My Middie Name
TTITLE7=Driffin Blues
TTITLE8=This May Be The Last Time
TTITLE9=Move a Mountain
TTITLE10=The Middle Aged Blues Boogie
TTITLE11=I Just Want To Make Love To You
TTITLE12=I'm In The Mood
TTITLE13=Don't Mistake Kindness
TTITLE14=Tin Pan Allay
EXTD=1. Buddy Guy&Paul Rodgers\n2. B.B.King\n3. Phil Upchurch&James Van B
EXTD=uren \n4. Roy Buchanan\n5. Katie Webster\n6. John Mayall&Buddy Guy\n
EXTD=7. Bonnie Raitt\n8. John Hammond\n9. Pops Staples\n10. Robert Cray\n
EXTD=11. Saffire\n12. Lou Rawls\n13. John Lee Hooker\n14. Albert Collins\n
EXTD=15. Stevie Ray Vaughan
EXTT0=
EXTT1=
EXTT2=
EXTT3=
EXTT4=
EXTT5=
EXTT6=
EXTT7=
EXTT8=
EXTT9=
EXTT10=
EXTT11=
EXTT12=
EXTT13=
EXTT14=
PLAYORDER=
